<svg width="500" height="400" viewBox="0 0 500 400" xmlns="http://www.w3.org/2000/svg">
  <defs>
    <linearGradient id="grad1" x1="0%" y1="0%" x2="100%" y2="100%">
      <stop offset="0%" style="stop-color:#6E44FF;stop-opacity:1" />
      <stop offset="100%" style="stop-color:#00D2D7;stop-opacity:1" />
    </linearGradient>
  </defs>
  <!-- Background shapes -->
  <rect width="500" height="400" fill="#F9FAFC"/>
  <circle cx="100" cy="100" r="150" fill="url(#grad1)" opacity="0.1"/>
  <circle cx="450" cy="350" r="100" fill="url(#grad1)" opacity="0.1"/>

  <!-- Browser window -->
  <rect x="50" y="50" width="400" height="300" rx="12" fill="white" stroke="#E5E7EB" stroke-width="2"/>
  <rect x="50" y="50" width="400" height="30" rx="0" ry="0" fill="#F3F4F6"/>
   <circle cx="65" cy="65" r="6" fill="#FF5F56"/>
   <circle cx="85" cy="65" r="6" fill="#FFBD2E"/>
   <circle cx="105" cy="65" r="6" fill="#27C93F"/>

  <!-- Stylized content -->
  <rect x="70" y="100" width="150" height="15" rx="4" fill="#6E44FF"/>
  <rect x="70" y="130" width="280" height="8" rx="4" fill="#E5E7EB"/>
  <rect x="70" y="145" width="250" height="8" rx="4" fill="#E5E7EB"/>
  <rect x="70" y="160" width="290" height="8" rx="4" fill="#E5E7EB"/>

  <!-- Student avatars -->
  <circle cx="350" cy="150" r="30" fill="#00D2D7"/>
  <circle cx="350" cy="140" r="12" fill="white"/>
  <circle cx="400"cy="200" r="35" fill="#6E44FF" />
  <circle cx="400" cy="190" r="14" fill="white" />
  <circle cx="320" cy="230" r="25" fill="#FFBD2E" />
  <circle cx="320" cy="222" r="10" fill="white" />

  <!-- Chat bubble -->
   <path d="M 200 200 C 190 200 180 210 180 220 L 180 240 C 180 250 190 260 200 260 L 250 260 L 260 275 L 270 260 L 300 260 C 310 260 320 250 320 240 L 320 220 C 320 210 310 200 300 200 Z" fill="#6E44FF" opacity="0.2"/>
   <text x="205" y="235" font-family="Poppins" font-size="12" fill="#333">Let's study!</text>
</svg>